HIERARCHY
ROOT Hips
{
  OFFSET -35.4901 99.2528 17.4586
  CHANNELS 6 Xposition Yposition Zposition Zrotation Xrotation Yrotation
  JOINT LeftUpLeg
  {
    OFFSET 8.64259 1.95398 -2.38835
    CHANNELS 3 Zrotation Xrotation Yrotation
    JOINT LeftLeg
    {
      OFFSET 43.7702 0 0
      CHANNELS 3 Zrotation Xrotation Yrotation
      JOINT LeftFoot
      {
        OFFSET 40.6238 0 0
        CHANNELS 3 Zrotation Xrotation Yrotation
        JOINT LeftToeBase
        {
          OFFSET 12.7242 0 0
          CHANNELS 3 Zrotation Xrotation Yrotation
          End Site
          {
            OFFSET 0 0 0
          }
        }
      }
    }
  }
  JOINT RightUpLeg
  {
    OFFSET -8.2249 1.95398 -2.59336
    CHANNELS 3 Zrotation Xrotation Yrotation
    JOINT RightLeg
    {
      OFFSET 43.5653 0 0
      CHANNELS 3 Zrotation Xrotation Yrotation
      JOINT RightFoot
      {
        OFFSET 40.6238 0 0
        CHANNELS 3 Zrotation Xrotation Yrotation
        JOINT RightToeBase
        {
          OFFSET 12.7242 0 0
          CHANNELS 3 Zrotation Xrotation Yrotation
          End Site
          {
            OFFSET 0 0 0
          }
        }
      }
    }
  }
  JOINT Spine
  {
    OFFSET 0.165834 0.87714 6.61349
    CHANNELS 3 Zrotation Xrotation Yrotation
    JOINT Spine1
    {
      OFFSET 7.38963 1.71661e-005 0
      CHANNELS 3 Zrotation Xrotation Yrotation
      JOINT Spine2
      {
        OFFSET 11.9445 1.14441e-005 0
        CHANNELS 3 Zrotation Xrotation Yrotation
        JOINT Spine3
        {
          OFFSET 14.7254 4.19617e-005 0
          CHANNELS 3 Zrotation Xrotation Yrotation
          JOINT Spine4
          {
            OFFSET 10.9679 0 0
            CHANNELS 3 Zrotation Xrotation Yrotation
            JOINT RightShoulder
            {
              OFFSET 2.46616 -1.6653 3.69651
              CHANNELS 3 Zrotation Xrotation Yrotation
              JOINT RightArm
              {
                OFFSET 13.0012 0 0
                CHANNELS 3 Zrotation Xrotation Yrotation
                JOINT RightForeArm
                {
                  OFFSET 28.7848 1.52588e-005 0
                  CHANNELS 3 Zrotation Xrotation Yrotation
                  JOINT RightHand
                  {
                    OFFSET 26.5688 1.52588e-005 0
                    CHANNELS 3 Zrotation Xrotation Yrotation
                    End Site
                    {
                      OFFSET 0 0 0
                    }
                  }
                }
              }
            }
            JOINT LeftShoulder
            {
              OFFSET 2.38034 -1.29275 -3.7523
              CHANNELS 3 Zrotation Xrotation Yrotation
              JOINT LeftArm
              {
                OFFSET 16.3182 6.10351e-005 0
                CHANNELS 3 Zrotation Xrotation Yrotation
                JOINT LeftForeArm
                {
                  OFFSET 27.0901 0 0
                  CHANNELS 3 Zrotation Xrotation Yrotation
                  JOINT LeftHand
                  {
                    OFFSET 24.5451 1.52588e-005 0
                    CHANNELS 3 Zrotation Xrotation Yrotation
                    End Site
                    {
                      OFFSET 0 0 0
                    }
                  }
                }
              }
            }
            JOINT Neck
            {
              OFFSET 5.0226 -0.0266342 0
              CHANNELS 3 Zrotation Xrotation Yrotation
              JOINT Head
              {
                OFFSET 6.69364 2.86102e-005 0
                CHANNELS 3 Zrotation Xrotation Yrotation
                End Site
                {
                  OFFSET 0 0 0
                }
              }
            }
          }
        }
      }
    }
  }
}
MOTION
Frames:	10
Frame Time:	0.0416667
-316.35 99.0076 -293.08 101.516 -49.1415 97.9943 -177.074 -7.27454 90.8158 -6.24532 -1.22528 0.300045 64.3501 2.92032 -1.28256 18.1977 8.13121 -10.3251 169.791 -2.60075 86.4368 -10.9466 -22.7005 -1.54607 60.391 -0.545792 -7.15522 26.9595 -2.57983 6.89626 -0.0359009 8.00315 -90.0642 10.845 -0.101115 -0.118355 -0.825989 -0.106221 -0.113799 -23.3611 -0.0608803 -0.143277 -3.34846 -0.0608709 -0.143274 89.0412 -32.344 -107.725 38.306 -13.8624 -6.73111 -1.08992 -40.9804 -20.2166 -15.3405 -0.0399706 -14.5717 -84.9551 -53.8892 86.7922 -19.252 20.049 -19.0316 -1.38549 3.22404 -9.22679 -3.48073 -0.00632732 -13.0588 5.80822 -8.4487 0.931201 -2.91387 -8.42337 -5.46171 
-316.405 98.9801 -292.994 101.445 -49.6628 98.2469 -176.872 -6.89411 91.145 -6.91682 -1.61421 0.199593 64.7641 2.90055 -1.12214 8.47458 14.3715 -15.1784 170.498 -2.58213 87.0553 -11.0239 -22.2527 -2.00679 60.4208 -0.581012 -6.67434 26.6282 -2.50983 6.7055 0.031681 8.00254 -90.118 10.8632 0.00860851 -0.235497 -0.807801 -0.00175704 -0.235653 -23.3428 0.0789764 -0.22202 -3.33017 0.0789732 -0.222023 89.1124 -31.9959 -107.723 38.501 -13.475 -6.9989 -1.20007 -44.4668 -19.7178 -8.77981 -0.547454 -18.0127 -84.8197 -54.3899 87.046 -18.9154 20.0151 -19.1704 -1.60764 2.50091 -9.0772 -3.44672 -0.00904819 -15.3599 6.00413 -8.26703 1.45588 -2.87037 -8.3405 -6.18025 
-316.417 98.9596 -292.947 101.558 -49.5388 98.3654 -176.827 -6.77713 91.2268 -7.38154 -1.51179 0.236089 65.0231 2.92553 -1.20062 24.0562 4.48775 -6.64152 170.441 -2.97766 87.0458 -10.5664 -21.8105 -1.95576 60.8869 -0.847731 -6.25226 25.977 -2.48194 6.61793 0.0201807 8.00313 -90.1619 10.8682 -0.0345748 -0.31865 -0.802764 -0.0485619 -0.316833 -23.3376 0.0627777 -0.314317 -3.32497 0.0627769 -0.314319 88.9257 -31.6033 -108.234 38.4406 -13.1083 -7.33747 -0.796428 -52.5207 -18.6024 3.92979 -2.83327 -26.9556 -84.6408 -55.2638 87.4023 -18.2914 19.7187 -19.3172 -1.03079 5.26107 -8.89472 -6.12349 0.201496 -13.0351 5.87122 -8.121 2.13947 -2.47755 -8.34311 -6.57773 
-316.421 98.8893 -292.92 101.63 -49.4806 98.3877 -176.862 -6.68647 91.2102 -7.65939 -1.5407 0.276236 65.0984 2.887 -1.45205 23.5601 -1.29264 2.41834 170.547 -3.3289 87.0625 -10.2193 -20.9486 -2.10286 61.7232 -1.2831 -5.40664 24.8512 -2.37751 6.33098 0.0218613 8.00425 -90.186 10.8652 -0.0423577 -0.365937 -0.805837 -0.0584232 -0.36372 -23.3406 0.0695631 -0.361747 -3.32794 0.0695751 -0.361745 88.8804 -31.3208 -108.434 38.6406 -12.7096 -7.19672 -2.31332 -58.7796 -19.9359 13.2373 -5.8933 -34.4986 -84.6415 -55.545 87.4326 -18.1398 19.7236 -19.3794 -0.928605 5.86861 -9.04864 -6.13894 0.170255 -12.2977 5.70127 -8.23722 2.11623 -2.06385 -8.47379 -5.854 
-316.51 98.8059 -292.934 101.231 -49.2903 98.1172 -176.803 -5.87229 91.3204 -8.78947 -1.19107 0.236953 65.8945 3.00639 -1.13696 22.7223 -0.720401 1.60277 170.688 -3.58218 87.1904 -9.42589 -19.6418 -2.14978 62.562 -1.74668 -4.30371 23.9928 -2.33413 6.21056 -0.0106552 7.97744 -90.233 10.9185 -0.128927 -0.451285 -0.752492 -0.148654 -0.445185 -23.287 0.0126629 -0.46917 -3.27438 0.0126697 -0.46917 88.947 -30.7502 -108.533 38.7853 -12.9128 -7.31655 -0.934421 -57.9552 -18.9648 12.852 -5.66538 -33.9295 -84.4487 -56.2823 87.7854 -17.5864 19.8026 -19.4131 -1.04485 5.62229 -9.12153 -6.08018 0.152057 -11.8538 6.066 -8.06102 3.21893 -2.69635 -8.48011 -6.63123 
-316.542 98.6933 -292.891 101.239 -49.1601 97.8873 -176.681 -5.31147 91.3042 -9.96118 -0.971451 -0.0140066 66.2718 2.98496 -1.33849 22.9217 -1.03071 2.06176 170.303 -3.8246 86.7727 -9.08185 -18.5492 -1.93149 64.0892 -2.52218 -2.89748 21.8643 -2.28712 6.06901 -0.0176715 7.98559 -90.1941 10.9023 -0.124976 -0.374327 -0.768749 -0.141336 -0.36847 -23.3035 -0.00669821 -0.394579 -3.29082 -0.00670458 -0.394587 88.7907 -30.9071 -108.774 38.7153 -13.2609 -7.11444 1.74612 -45.7011 -17.1296 -6.29763 -1.0377 -20.2138 -84.4461 -56.0226 87.7611 -17.8348 19.741 -19.3545 -0.831893 6.23923 -9.15528 -6.15797 0.129444 -11.0783 5.83584 -8.07479 2.71568 -2.54503 -8.40465 -6.22832 
-316.694 98.5401 -292.779 101.14 -49.1383 97.8977 -176.516 -4.59006 91.5993 -11.2608 -0.713485 -0.0737446 66.8233 2.9878 -1.43424 23.4007 -1.09277 2.13262 170.438 -4.26676 86.9185 -8.32608 -16.9095 -1.93957 65.3403 -3.15165 -1.1372 20.7027 -2.14322 5.74122 -0.00606847 8.00568 -90.2001 10.8622 -0.10455 -0.388214 -0.808811 -0.121529 -0.383243 -23.3435 0.0169681 -0.401688 -3.33085 0.0169593 -0.401688 88.8506 -30.7422 -108.724 38.921 -14.1829 -7.21639 2.36416 -32.5243 -16.887 -22.5708 0.347025 -10.6173 -84.5255 -55.4357 87.5852 -18.3037 20.1211 -19.3364 -0.953303 5.85376 -9.51864 -8.62197 0.384366 -12.9711 5.95569 -7.99458 2.71015 -2.46424 -8.33121 -6.39855 
-316.873 98.4298 -292.602 101.212 -49.1445 98.2054 -176.413 -4.15507 91.9352 -12.363 -0.623906 0.0795813 67.8009 3.12671 -1.23124 22.6123 -0.98014 1.99515 170.612 -4.70287 87.2264 -7.85999 -14.7821 -1.84872 66.8957 -3.83346 1.00377 18.8031 -2.19271 5.828 0.0207845 8.0272 -90.2371 10.8191 -0.0680313 -0.465137 -0.851961 -0.0884442 -0.461697 -23.3865 0.0749079 -0.464079 -3.37381 0.0748897 -0.464087 88.7712 -30.8521 -108.834 38.7124 -14.4181 -7.07179 1.52537 -30.9043 -17.2667 -15.0857 -0.106267 -10.8178 -84.5471 -55.7739 87.5916 -18.0448 19.2398 -19.5896 -0.742931 6.55546 -8.61284 -3.00712 0.00436481 -9.80462 7.02903 -7.68902 3.67079 -4.30155 -8.10439 -8.16083 
-317.002 98.2573 -292.382 100.896 -49.0947 97.6387 -176.64 -3.65677 91.6903 -13.0485 -0.853059 0.18292 68.0062 3.02607 -1.38619 21.4553 1.32771 -1.33393 170.757 -4.68258 87.091 -7.95901 -12.8102 -2.11422 69.3051 -4.67481 3.39976 16.4592 -1.73167 4.89173 0.0180489 7.9922 -90.2007 10.8892 -0.056811 -0.393869 -0.781811 -0.0740812 -0.390995 -23.3165 0.0642012 -0.392739 -3.30385 0.0642033 -0.392734 88.8237 -30.7531 -108.772 38.8977 -14.4769 -6.73972 1.35049 -30.5414 -17.556 -14.9915 -0.134094 -10.4498 -84.6502 -55.9996 87.4705 -17.5715 19.8344 -19.419 -1.06668 5.32666 -9.25594 -4.92798 0.0621125 -11.2051 7.11705 -7.65359 3.92394 -5.09131 -8.06354 -8.52657 
-316.928 98.1427 -292.011 101.298 -48.827 97.9287 -176.635 -3.87627 91.7913 -13.6047 -0.617369 0.373369 68.3696 3.03381 -1.56654 23.7722 -1.15922 2.20567 170.704 -5.39914 87.0218 -7.85531 -10.3377 -2.11341 71.546 -5.29278 6.17275 14.3118 -1.57098 4.61512 0.0103675 8.02112 -90.2084 10.8313 -0.0755564 -0.407354 -0.839692 -0.0933957 -0.403648 -23.3743 0.0503536 -0.41123 -3.36168 0.050372 -0.411234 88.9251 -30.501 -108.677 39.137 -14.4161 -6.76805 1.77234 -30.3685 -17.0624 -15.3322 -0.0379578 -11.2254 -84.5602 -56.1698 87.6162 -17.4589 19.8527 -19.3793 -0.973469 5.73889 -9.43266 -4.52359 0.0231098 -10.4537 6.84722 -7.48998 4.27533 -4.75204 -7.98482 -8.71701 
